<?xml version="1.0" standalone="no"?>
<!DOCTYPE svg PUBLIC "-//W3C//DTD SVG 20010904//EN"
 "http://www.w3.org/TR/2001/REC-SVG-20010904/DTD/svg10.dtd">
<svg version="1.0" xmlns="http://www.w3.org/2000/svg"
 width="427.000000pt" height="585.000000pt" viewBox="0 0 427.000000 585.000000"
 preserveAspectRatio="xMidYMid meet">

<g transform="translate(0.000000,585.000000) scale(0.100000,-0.100000)"
fill="#000000" stroke="none">
<path d="M2525 3860 c3 -5 8 -10 11 -10 2 0 4 5 4 10 0 6 -5 10 -11 10 -5 0
-7 -4 -4 -10z"/>
<path d="M1821 3793 c15 -40 47 -72 102 -100 58 -29 56 -39 -3 -23 -32 9 -58
8 -110 -1 -38 -7 -67 -16 -64 -20 2 -4 26 -12 52 -19 39 -9 65 -8 128 4 91 17
111 11 158 -50 29 -37 25 -38 -26 -2 -21 14 -41 18 -80 16 l-53 -3 35 -20 35
-20 -33 -3 c-18 -2 -53 1 -78 6 -45 10 -45 10 -27 -11 47 -52 159 -75 309 -62
l89 8 -38 17 c-47 21 -81 53 -111 105 -39 66 -124 140 -186 160 -30 10 -67 24
-82 32 -28 13 -28 13 -17 -14z"/>
<path d="M2560 3659 c0 -5 5 -7 10 -4 6 3 10 8 10 11 0 2 -4 4 -10 4 -5 0 -10
-5 -10 -11z"/>
<path d="M2616 3645 c-10 -8 -46 -18 -80 -21 -46 -6 -55 -9 -36 -14 17 -4 25
-13 24 -28 0 -16 2 -19 12 -11 7 6 18 8 24 4 5 -3 10 -1 10 5 0 6 4 9 9 5 6
-3 25 1 43 10 l33 15 -40 -4 c-37 -4 -39 -3 -20 10 11 9 27 19 35 24 8 5 13
11 10 13 -3 3 -14 -1 -24 -8z"/>
<path d="M2815 3560 c-4 -6 -10 -8 -15 -5 -22 13 -17 -15 7 -36 25 -24 26 -24
14 -1 -10 18 -9 22 3 22 8 0 18 4 21 10 4 6 -1 7 -11 3 -12 -4 -15 -3 -10 5 4
7 5 12 2 12 -3 0 -8 -5 -11 -10z"/>
<path d="M2566 3547 c3 -10 9 -15 12 -12 3 3 0 11 -7 18 -10 9 -11 8 -5 -6z"/>
<path d="M2334 3461 l6 -40 -32 10 c-33 9 -131 3 -155 -10 -9 -5 2 -20 33 -45
39 -33 51 -38 80 -33 l35 6 -30 -35 c-21 -23 -31 -45 -31 -67 0 -18 -3 -43 -7
-56 -6 -22 -3 -22 48 13 29 19 61 50 70 67 l16 32 7 -34 c4 -19 14 -43 22 -54
16 -20 16 -20 36 7 14 17 23 47 25 81 4 49 2 57 -22 75 -27 22 -26 26 18 36
15 3 27 10 27 15 0 15 -29 21 -54 11 -20 -7 -25 -5 -30 13 -5 17 -8 19 -15 8
-7 -11 -10 -9 -15 7 -4 11 -14 23 -23 26 -13 5 -15 0 -9 -33z"/>
<path d="M2445 3490 c-3 -5 -1 -10 4 -10 6 0 11 5 11 10 0 6 -2 10 -4 10 -3 0
-8 -4 -11 -10z"/>
<path d="M2935 3484 c10 -8 12 -14 5 -17 -6 -3 -6 -5 1 -3 21 4 18 32 -3 32
-17 0 -18 -2 -3 -12z"/>
<path d="M2683 3451 c-10 -15 -9 -22 1 -30 10 -8 13 -4 13 19 0 17 -1 30 -1
30 -1 0 -7 -9 -13 -19z"/>
<path d="M1850 3338 c0 -12 7 -18 23 -17 15 0 17 2 7 6 -8 3 -18 11 -22 17 -5
7 -8 4 -8 -6z"/>
<path d="M2617 3321 c-3 -12 1 -22 9 -25 8 -3 14 -12 14 -21 0 -8 4 -15 9 -15
6 0 3 17 -6 38 -19 47 -19 47 -26 23z"/>
<path d="M1818 3313 c7 -3 16 -2 19 1 4 3 -2 6 -13 5 -11 0 -14 -3 -6 -6z"/>
<path d="M1790 3299 c0 -5 -4 -7 -10 -4 -5 3 -7 0 -5 -8 4 -10 -4 -13 -33 -11
-22 1 -46 4 -53 8 -8 4 4 -9 26 -28 22 -20 44 -36 48 -36 5 0 22 -9 38 -21 16
-11 29 -16 29 -10 0 5 -4 13 -10 16 -19 12 -9 23 34 38 46 16 58 13 69 -15 6
-17 37 -26 37 -10 0 4 4 13 9 20 6 10 18 8 56 -13 l49 -26 -25 27 c-29 32
-116 75 -135 67 -8 -3 -14 1 -14 8 0 12 -2 12 -9 0 -6 -10 -10 -10 -16 -1 -4
7 -10 8 -14 3 -3 -6 -20 -13 -38 -16 -26 -5 -31 -3 -26 8 3 8 2 15 -1 15 -3 0
-6 -5 -6 -11z"/>
<path d="M2638 3217 c-3 -19 -2 -25 4 -19 6 6 8 18 6 28 -3 14 -5 12 -10 -9z"/>
<path d="M1840 3186 c0 -7 7 -17 16 -20 23 -9 124 -7 124 2 0 4 -19 7 -42 7
-24 -1 -55 4 -70 12 -24 12 -28 11 -28 -1z"/>
<path d="M2650 3116 c0 -35 -23 -94 -64 -161 -35 -58 -84 -191 -73 -201 2 -3
14 10 25 28 12 19 30 44 40 56 19 22 19 21 14 -72 -4 -85 -2 -99 21 -150 29
-62 41 -65 51 -11 4 19 19 60 33 92 16 35 27 76 27 106 1 40 3 45 13 30 25
-38 68 -92 73 -93 9 0 -1 153 -11 187 -6 17 -27 51 -48 75 -20 23 -49 64 -64
91 -16 26 -30 47 -32 47 -3 0 -5 -11 -5 -24z"/>
<path d="M2258 2753 c7 -3 16 -2 19 1 4 3 -2 6 -13 5 -11 0 -14 -3 -6 -6z"/>
<path d="M2090 2731 c0 -6 9 -9 19 -8 11 0 17 5 15 9 -7 11 -34 10 -34 -1z"/>
<path d="M2340 2730 c0 -5 5 -10 10 -10 6 0 10 5 10 10 0 6 -4 10 -10 10 -5 0
-10 -4 -10 -10z"/>
<path d="M875 1901 c-22 -10 -50 -28 -62 -40 -24 -22 -31 -51 -13 -51 6 0 10
7 10 15 0 25 71 64 130 70 172 19 196 -166 34 -261 -58 -34 -170 -46 -180 -20
-9 24 12 44 28 28 17 -17 28 -15 28 4 0 13 7 15 30 11 36 -8 41 10 5 19 -14 3
-25 10 -25 15 0 17 43 125 56 140 16 17 19 49 5 49 -10 0 -54 -95 -73 -159
-10 -32 -20 -46 -40 -53 -67 -24 -36 -88 42 -88 132 0 250 102 250 217 0 39
-5 56 -25 77 -46 49 -128 61 -200 27z"/>
<path d="M1648 1908 c-7 -4 -38 -12 -68 -18 -90 -17 -152 -67 -97 -78 12 -2
15 1 11 12 -7 19 39 41 104 52 l41 6 -26 -63 c-29 -72 -35 -79 -80 -79 -17 0
-34 -4 -37 -9 -10 -15 5 -19 35 -9 17 6 33 7 36 4 4 -4 -1 -28 -9 -54 -30 -85
-31 -92 -14 -92 9 0 16 8 16 18 0 9 10 45 21 79 20 55 25 62 54 67 18 4 40 4
49 0 9 -3 16 -1 16 4 0 6 -20 12 -44 14 l-44 3 28 61 c24 52 33 62 60 68 47 9
89 7 110 -4 21 -11 38 4 18 16 -16 10 -162 11 -180 2z"/>
<path d="M2953 1913 c15 -2 32 -13 38 -24 6 -13 9 -99 7 -240 -2 -182 -6 -221
-18 -229 -13 -8 -13 -10 1 -10 9 0 31 -3 48 -6 l31 -6 0 256 0 256 60 0 c99 0
166 -42 207 -130 10 -23 11 -21 12 25 l1 51 -57 29 c-55 27 -65 29 -208 31
-82 1 -138 0 -122 -3z"/>
<path d="M1955 1873 c-14 -16 -39 -64 -56 -109 -51 -132 -91 -164 -83 -65 6
58 -8 69 -54 41 -36 -22 -61 -83 -42 -105 16 -19 35 -19 54 0 13 13 19 13 36
3 16 -10 24 -10 40 0 17 10 20 10 20 -3 0 -28 34 -35 69 -14 25 15 36 17 46 9
10 -8 21 -7 43 4 23 12 31 13 35 3 3 -9 11 -9 34 -1 26 10 32 8 42 -7 16 -27
36 -24 73 11 31 30 39 34 69 31 9 -1 24 10 34 25 22 34 38 19 25 -26 -16 -54
19 -80 55 -40 17 19 18 19 42 0 26 -20 51 -16 96 15 28 20 37 19 37 -3 0 -21
18 -42 36 -42 7 0 26 11 42 25 l29 24 11 -24 c15 -32 36 -32 69 1 23 23 27 24
35 10 5 -9 16 -16 24 -16 19 0 74 53 74 71 0 8 -13 -1 -29 -19 -17 -17 -37
-32 -45 -32 -20 0 -20 -1 4 60 24 61 7 67 -19 7 -19 -45 -66 -90 -85 -84 -22
7 -18 66 7 99 14 18 32 48 41 66 14 27 22 32 51 32 19 0 35 5 35 11 0 7 -12 9
-30 7 -29 -4 -31 -3 -25 24 6 23 3 28 -13 28 -10 0 -25 -11 -32 -25 -9 -18
-22 -25 -42 -25 -23 0 -28 4 -28 25 0 36 -24 31 -56 -10 -14 -19 -35 -35 -45
-35 -10 0 -21 -5 -25 -12 -5 -8 0 -9 14 -6 16 5 22 2 22 -10 0 -35 -23 -98
-42 -119 -26 -27 -71 -44 -89 -32 -11 6 -6 15 24 39 36 30 48 62 27 75 -17 10
-46 -13 -84 -65 -56 -78 -90 -82 -66 -9 12 37 12 42 -3 51 -9 5 -17 16 -17 23
0 27 -20 16 -26 -13 -4 -17 -17 -36 -34 -45 -37 -22 -38 -22 -42 15 -4 37 -19
45 -42 23 -21 -21 -20 -39 1 -61 16 -15 16 -17 -2 -30 -33 -24 -45 -17 -45 26
0 31 7 48 34 77 64 72 93 153 54 153 -21 0 -67 -79 -89 -153 -32 -104 -75
-132 -73 -46 1 24 -3 47 -9 51 -19 12 -62 -19 -91 -65 -27 -43 -67 -73 -80
-60 -15 15 -3 54 27 94 70 94 105 179 73 179 -8 0 -27 -12 -41 -27z m35 -3 c0
-16 -73 -140 -82 -140 -4 0 9 34 29 75 34 69 53 92 53 65z m250 -3 c0 -18 -60
-111 -67 -104 -5 6 54 117 63 117 2 0 4 -6 4 -13z m420 -22 c0 -8 -7 -15 -16
-15 -14 0 -14 3 -4 15 7 8 14 15 16 15 2 0 4 -7 4 -15z m120 6 c0 -12 -20 -25
-27 -18 -7 7 6 27 18 27 5 0 9 -4 9 -9z m-100 -41 c-12 -8 -10 -10 8 -10 20 0
22 -4 16 -22 -4 -13 -10 -38 -15 -56 -7 -32 -28 -63 -59 -89 -52 -43 -56 40
-5 119 43 66 55 81 63 73 4 -3 0 -10 -8 -15z m-40 -4 c0 -8 -9 -24 -20 -37
l-20 -24 6 30 c4 17 9 33 11 38 7 12 23 8 23 -7z m96 -38 c-19 -26 -22 -7 -4
25 7 13 13 17 15 10 3 -7 -3 -23 -11 -35z m-936 -57 c0 -24 -37 -71 -56 -71
-19 0 -18 30 3 60 29 43 53 48 53 11z m260 5 c0 -28 -36 -76 -57 -76 -21 0 -9
47 19 78 27 28 38 28 38 -2z m440 10 c0 -16 -26 -46 -41 -46 -15 0 -10 19 11
40 24 24 30 25 30 6z m-275 -21 c0 -10 -6 -20 -12 -22 -8 -3 -13 5 -13 22 0
17 5 25 13 23 6 -3 12 -13 12 -23z"/>
<path d="M2840 1796 c0 -9 5 -16 10 -16 6 0 10 4 10 9 0 6 -4 13 -10 16 -5 3
-10 -1 -10 -9z"/>
<path d="M1151 1734 c-34 -28 -51 -88 -32 -107 9 -9 19 -8 43 6 23 13 33 15
39 6 4 -7 17 -9 32 -5 14 3 29 2 32 -4 3 -5 13 -10 21 -10 16 0 95 69 78 70
-6 0 -21 -11 -34 -25 -45 -48 -63 -28 -34 40 8 20 12 40 8 44 -4 3 -8 2 -11
-4 -14 -39 -52 -90 -67 -93 -17 -4 -18 1 -14 42 5 38 2 48 -12 56 -14 8 -26 4
-49 -16z m47 -15 c3 -21 -35 -79 -53 -79 -22 0 -19 37 6 71 21 30 42 34 47 8z"/>
<path d="M3412 1680 c0 -14 2 -19 5 -12 2 6 2 18 0 25 -3 6 -5 1 -5 -13z"/>
<path d="M3412 1630 c0 -14 2 -19 5 -12 2 6 2 18 0 25 -3 6 -5 1 -5 -13z"/>
<path d="M3312 1511 c-25 -44 -84 -90 -117 -92 -12 0 -15 -3 -7 -6 21 -8 96
16 126 41 23 18 27 28 24 60 l-3 39 -23 -42z"/>
<path d="M2172 1468 l1 -73 6 55 6 55 17 -30 c10 -16 17 -27 18 -23 0 16 -33
88 -41 88 -5 0 -8 -33 -7 -72z"/>
<path d="M2266 1486 c-14 -32 -30 -55 -36 -51 -12 7 -13 -5 -1 -23 6 -10 15 0
32 34 l23 48 8 -32 c12 -45 19 -40 17 13 -4 72 -15 75 -43 11z"/>
<path d="M2452 1475 c-1 -56 1 -65 9 -45 l10 25 24 -27 c33 -38 41 -35 16 5
-19 32 -19 34 -3 52 10 12 7 11 -9 -3 -14 -12 -28 -22 -32 -22 -3 0 -8 19 -10
43 -2 27 -4 17 -5 -28z"/>
<path d="M2345 1490 c-4 -6 6 -7 25 -4 23 5 30 3 30 -8 0 -9 -13 -18 -31 -22
-25 -5 -30 -10 -27 -28 2 -19 10 -23 41 -25 35 -1 37 1 37 29 0 16 -5 38 -10
49 -11 20 -54 26 -65 9z m53 -57 c-4 -22 -48 -31 -48 -10 0 19 10 27 32 27 13
0 18 -6 16 -17z"/>
<path d="M2561 1486 c-16 -20 -10 -66 11 -79 11 -8 23 -7 40 1 l23 12 -23 -6
c-22 -6 -52 10 -52 27 0 5 18 9 40 9 37 0 39 2 31 23 -10 26 -52 35 -70 13z
m57 -13 c2 -9 -7 -13 -27 -13 -30 0 -39 9 -24 24 11 10 46 3 51 -11z"/>
<path d="M2674 1455 l1 -50 38 0 37 -1 -1 51 c-1 50 -1 50 -9 12 -14 -74 -56
-77 -63 -5 -4 40 -4 39 -3 -7z"/>
<path d="M2791 1431 c1 -36 4 -56 6 -43 2 12 9 20 14 16 18 -11 56 5 62 26 7
28 -2 58 -21 65 -14 5 -15 4 -4 -6 17 -18 15 -68 -3 -75 -33 -13 -61 46 -35
72 7 7 6 11 -5 11 -12 0 -15 -13 -14 -66z"/>
<path d="M3093 1403 c15 -2 37 -2 50 0 12 2 0 4 -28 4 -27 0 -38 -2 -22 -4z"/>
</g>
</svg>
